<?xml version="1.0" encoding="UTF-8"?>
<svg width="512px" height="512px" viewBox="0 0 512 512" version="1.1" xmlns="http://www.w3.org/2000/svg" xmlns:xlink="http://www.w3.org/1999/xlink">
    <!-- Generator: Sketch 42 (36781) - http://www.bohemiancoding.com/sketch -->
    <title>icon</title>
    <desc>Created with Sketch.</desc>
    <defs></defs>
    <g id="Page-1" stroke="none" stroke-width="1" fill="none" fill-rule="evenodd">
        <g id="icon" fill-rule="nonzero">
            <path d="M163.116,408.964 L73.236,253.294 L163.116,97.622 L342.868,97.622 L432.746,253.294 L342.866,408.964 L163.118,408.964 L163.116,408.964 Z M255.994,324.352 C294.622,324.352 326.048,292.924 326.048,254.294 C326.048,215.666 294.622,184.24 255.994,184.24 C217.364,184.24 185.938,215.666 185.938,254.294 C185.938,292.924 217.364,324.352 255.994,324.352 Z" id="Combined-Shape" fill="#CAC9C2"></path>
            <path d="M396.93,45.432 L441.924,123.362 C436.236,119.874 429.692,117.66 423.844,117.66 L176.664,117.66 L98.462,252.762 L54.654,177.862 C51.46,172.334 50.132,164.77 50.64,157.528 L115.358,45.432 C120.864,35.894 134.384,28.088 145.4,28.088 L366.886,28.088 C377.9,28.088 391.42,35.892 396.93,45.432 Z M151.108,85.674 L151.108,85.674 C158.569807,85.6662853 164.617181,79.6198055 164.626,72.158 C164.618281,64.695738 158.570263,58.6486144 151.108,58.642 C143.646974,58.6508166 137.600817,64.6969743 137.592,72.158 C137.600817,79.6190257 143.646974,85.6651834 151.108,85.674 Z M372.592,72.158 C372.505402,65.3078581 366.927689,59.8002119 360.077,59.8002119 C353.226311,59.8002119 347.648598,65.3078581 347.562,72.158 C347.505,76.6668806 349.8778,80.8578649 353.773383,83.1289203 C357.668965,85.3999757 362.485035,85.3999757 366.380617,83.1289203 C370.2762,80.8578649 372.649,76.6668806 372.592,72.158 Z" id="Combined-Shape" fill="#5072AA"></path>
            <path d="M53.454,152.622 L50.622,157.528 C50.114,164.77 51.442,172.334 54.634,177.862 L98.442,252.762 L121.75,212.5 L53.454,152.622" id="Shape" fill="#4D6796"></path>
            <path d="M507.674,237.248 C513.184,246.788 513.184,262.398 507.674,271.938 L396.93,463.752 C391.422,473.29 377.902,481.096 366.886,481.096 L277.208,481.096 C282.48,477.974 287.072,473.744 289.758,469.096 L411.782,253.508 L334.708,117.66 L423.844,117.66 C429.692,117.66 436.236,119.872 441.924,123.36 L507.674,237.248 Z M360.076,447.964 C367.538587,447.956283 373.586283,441.908587 373.594,434.446 C373.585181,426.984195 367.537807,420.937715 360.076,420.93 C352.614974,420.938817 346.568817,426.984974 346.56,434.446 C346.567715,441.907807 352.614195,447.955181 360.076,447.964 Z M465.268,267.812 C472.730262,267.804281 478.777386,261.756263 478.784,254.294 C478.775183,246.832974 472.729026,240.786817 465.268,240.778 C457.806193,240.785715 451.758819,246.832195 451.75,254.294 C451.757717,261.756587 457.805413,267.804283 465.268,267.812 Z" id="Combined-Shape" fill="#CC4232"></path>
            <path d="M444.892,128.47 L441.944,123.36 C436.26,119.872 429.716,117.66 423.868,117.66 L334.732,117.66 L357.932,158.554 L444.892,128.47" id="Shape" fill="#B23F33"></path>
            <path d="M178.368,389.38 L178.368,389.378 L334.876,389.378 L289.758,469.092 C287.072,473.742 282.48,477.972 277.208,481.092 L145.4,481.092 C134.384,481.092 120.864,473.288 115.358,463.75 L4.614,271.936 C-0.894,262.396 -0.894,246.786 4.614,237.246 L50.64,157.526 C50.134,164.768 51.462,172.332 54.654,177.86 L178.368,389.38 Z M151.108,447.964 C158.571043,447.957384 164.619384,441.909043 164.626,434.446 C164.618281,426.983738 158.570263,420.936614 151.108,420.93 C143.646974,420.938817 137.600817,426.984974 137.592,434.446 C137.599715,441.907807 143.646195,447.955181 151.108,447.964 Z M45.73,267.812 C53.1918055,267.803181 59.2382853,261.755807 59.246,254.294 C59.2371834,246.832974 53.1910257,240.786817 45.73,240.778 C38.2681933,240.785715 32.2208187,246.832195 32.212,254.294 C32.2197167,261.756587 38.2674134,267.804283 45.73,267.812 Z" id="Combined-Shape" fill="#ECB02A"></path>
            <path d="M269.714,481.094 L277.38,481.094 C282.654,477.974 287.244,473.744 289.928,469.094 L335.048,389.38 L287,389.38 L269.714,481.094" id="Shape" fill="#C79732"></path>
        </g>
    </g>
</svg>